<?xml version="1.0" standalone="no"?>
<!DOCTYPE svg PUBLIC "-//W3C//DTD SVG 20010904//EN"
 "http://www.w3.org/TR/2001/REC-SVG-20010904/DTD/svg10.dtd">
<svg version="1.0" xmlns="http://www.w3.org/2000/svg"
 width="42.000000pt" height="42.000000pt" viewBox="0 0 42.000000 42.000000"
 preserveAspectRatio="xMidYMid meet">

<g transform="translate(0.000000,42.000000) scale(0.100000,-0.100000)"
fill="#000000" stroke="none">
<path d="M140 405 c-8 -10 -30 -15 -61 -15 -46 0 -49 -2 -49 -25 l0 -25 183 2
c180 3 182 3 185 26 3 20 0 22 -51 22 -40 0 -56 4 -61 15 -4 11 -22 15 -69 15
-45 0 -68 -5 -77 -15z"/>
<path d="M60 167 c0 -98 4 -147 12 -155 17 -17 269 -17 286 0 8 8 12 57 12
155 l0 143 -155 0 -155 0 0 -143z m88 -7 c-4 -134 -22 -135 -26 -2 -2 87 0
102 13 102 13 0 15 -15 13 -100z m77 -3 c0 -133 -19 -132 -23 1 -2 81 0 103
10 100 9 -3 13 -31 13 -101z m80 0 c0 -133 -19 -132 -23 1 -2 81 0 103 10 100
9 -3 13 -31 13 -101z"/>
</g>
</svg>
