<?xml version="1.0" standalone="no"?>
<!DOCTYPE svg PUBLIC "-//W3C//DTD SVG 20010904//EN"
 "http://www.w3.org/TR/2001/REC-SVG-20010904/DTD/svg10.dtd">
<svg version="1.0" xmlns="http://www.w3.org/2000/svg"
 width="64.000000pt" height="64.000000pt" viewBox="0 0 64.000000 64.000000"
 preserveAspectRatio="xMidYMid meet">

<g transform="translate(0.000000,64.000000) scale(0.100000,-0.100000)"
fill="#000000" stroke="none">
<path d="M334 572 c-18 -12 -24 -42 -14 -63 15 -27 66 -26 80 2 21 39 -30 86
-66 61z"/>
<path d="M497 500 c-4 -19 -17 -35 -37 -45 -35 -18 -42 -55 -10 -55 18 0 20
-7 20 -77 0 -89 13 -123 53 -136 28 -9 81 -3 105 11 23 15 2 41 -36 44 l-37 3
-3 78 -3 77 41 0 c36 0 40 2 40 25 0 23 -4 25 -40 25 l-40 0 0 40 c0 35 -3 40
-24 40 -18 0 -25 -7 -29 -30z"/>
<path d="M73 439 c-18 -5 -39 -19 -48 -31 -21 -31 -19 -94 3 -116 18 -18 18
-19 0 -42 -14 -18 -18 -33 -13 -56 3 -18 1 -35 -5 -39 -20 -12 -10 -54 17 -72
38 -25 158 -25 196 0 50 32 58 105 15 128 -10 6 -50 13 -88 16 -53 5 -67 9
-63 20 3 8 15 13 27 12 53 -4 79 3 103 27 22 22 25 32 20 70 -4 38 -2 44 14
44 12 0 19 7 19 20 0 17 -7 20 -39 20 -21 0 -58 2 -82 5 -24 2 -58 0 -76 -6z
m87 -59 c11 -11 20 -24 20 -29 0 -17 -31 -41 -54 -41 -43 0 -61 44 -30 74 21
21 40 20 64 -4z m26 -232 c11 -17 -25 -38 -67 -38 -37 0 -66 21 -54 40 9 14
112 13 121 -2z"/>
<path d="M300 427 c0 -14 7 -27 15 -31 12 -4 15 -23 15 -85 0 -72 -2 -80 -21
-86 -12 -4 -19 -14 -17 -23 3 -14 17 -18 76 -20 66 -3 72 -1 72 16 0 11 -7 22
-15 25 -11 5 -15 30 -17 114 l-3 108 -52 3 c-50 3 -53 2 -53 -21z"/>
</g>
</svg>
